<mxfile host="www.draw.io" modified="2019-10-24T13:08:15.319Z" agent="Mozilla/5.0 (Macintosh; Intel Mac OS X 10_14_6) AppleWebKit/537.36 (KHTML, like Gecko) Chrome/77.0.3865.90 Safari/537.36 Edg/77.0.235.27" etag="pvsICO64yoIvEFf2uz4V" version="12.1.4" type="github" pages="2">
  <diagram id="BjvIyLDhU8W38Qynd-k0" name="Page-1">
    <mxGraphModel dx="977" dy="599" grid="1" gridSize="10" guides="1" tooltips="1" connect="1" arrows="1" fold="1" page="1" pageScale="1" pageWidth="2336" pageHeight="1654" math="0" shadow="0">
      <root>
        <mxCell id="0"/>
        <mxCell id="1" parent="0"/>
        <mxCell id="KdxwWmkY_eBGt478L3Sq-1" value="" style="rounded=0;whiteSpace=wrap;html=1;shadow=0;glass=0;comic=0;fontSize=11;align=center;fillColor=none;" vertex="1" parent="1">
          <mxGeometry x="93" y="123" width="983" height="565" as="geometry"/>
        </mxCell>
        <mxCell id="KdxwWmkY_eBGt478L3Sq-2" value="" style="rounded=0;whiteSpace=wrap;html=1;strokeColor=none;fontSize=10;align=center;fillColor=#f5f5f5;fontColor=#333333;" vertex="1" parent="1">
          <mxGeometry x="927" y="133" width="140" height="280" as="geometry"/>
        </mxCell>
        <mxCell id="KdxwWmkY_eBGt478L3Sq-3" value="" style="rounded=0;whiteSpace=wrap;html=1;strokeColor=none;fontSize=10;align=center;fillColor=#f5f5f5;fontColor=#333333;" vertex="1" parent="1">
          <mxGeometry x="102" y="133" width="140" height="282" as="geometry"/>
        </mxCell>
        <mxCell id="KdxwWmkY_eBGt478L3Sq-4" value="" style="rounded=0;whiteSpace=wrap;html=1;strokeColor=none;fontSize=10;align=center;fillColor=#f5f5f5;fontColor=#333333;" vertex="1" parent="1">
          <mxGeometry x="782" y="133" width="133" height="280" as="geometry"/>
        </mxCell>
        <mxCell id="KdxwWmkY_eBGt478L3Sq-5" value="" style="rounded=0;whiteSpace=wrap;html=1;strokeColor=none;fontSize=10;align=center;fillColor=#fff2cc;" vertex="1" parent="1">
          <mxGeometry x="342" y="133" width="431" height="280" as="geometry"/>
        </mxCell>
        <mxCell id="KdxwWmkY_eBGt478L3Sq-6" value="" style="rounded=0;whiteSpace=wrap;html=1;strokeColor=none;fontSize=10;align=center;fillColor=#f5f5f5;fontColor=#333333;" vertex="1" parent="1">
          <mxGeometry x="252" y="133" width="80" height="280" as="geometry"/>
        </mxCell>
        <mxCell id="KdxwWmkY_eBGt478L3Sq-7" value="" style="shape=step;perimeter=stepPerimeter;whiteSpace=wrap;html=1;fixedSize=1;fontSize=19;align=center;fillColor=#f5f5f5;strokeColor=#666666;fontColor=#333333;" vertex="1" parent="1">
          <mxGeometry x="419" y="233" width="350" height="51" as="geometry"/>
        </mxCell>
        <mxCell id="KdxwWmkY_eBGt478L3Sq-8" style="rounded=0;orthogonalLoop=1;jettySize=auto;html=1;exitX=1;exitY=0.5;exitDx=0;exitDy=0;entryX=0;entryY=0.5;entryDx=0;entryDy=0;fontSize=11;" edge="1" parent="1" source="KdxwWmkY_eBGt478L3Sq-9" target="KdxwWmkY_eBGt478L3Sq-19">
          <mxGeometry relative="1" as="geometry"/>
        </mxCell>
        <mxCell id="KdxwWmkY_eBGt478L3Sq-9" value="&lt;b&gt;Respond to information request&lt;br&gt;&lt;br&gt;&lt;/b&gt;" style="shape=step;perimeter=stepPerimeter;whiteSpace=wrap;html=1;fixedSize=1;fontSize=19;align=center;fillColor=#f5f5f5;strokeColor=#666666;fontColor=#333333;" vertex="1" parent="1">
          <mxGeometry x="355" y="217.0000000000001" width="350" height="80" as="geometry"/>
        </mxCell>
        <mxCell id="KdxwWmkY_eBGt478L3Sq-10" value="" style="rounded=0;whiteSpace=wrap;html=1;strokeColor=none;fontSize=10;align=center;fillColor=#fff2cc;" vertex="1" parent="1">
          <mxGeometry x="342" y="419" width="430" height="256" as="geometry"/>
        </mxCell>
        <mxCell id="KdxwWmkY_eBGt478L3Sq-11" value="" style="triangle;whiteSpace=wrap;html=1;fillColor=#d5e8d4;strokeColor=#82b366;" vertex="1" parent="1">
          <mxGeometry x="336" y="238" width="23" height="38" as="geometry"/>
        </mxCell>
        <mxCell id="KdxwWmkY_eBGt478L3Sq-12" value="" style="html=1;verticalLabelPosition=bottom;align=center;labelBackgroundColor=#ffffff;verticalAlign=top;strokeWidth=2;strokeColor=#000000;fillColor=#ffffff;shadow=0;dashed=0;shape=mxgraph.ios7.icons.mail;aspect=fixed;" vertex="1" parent="1">
          <mxGeometry x="267" y="243" width="50" height="28" as="geometry"/>
        </mxCell>
        <mxCell id="KdxwWmkY_eBGt478L3Sq-13" value="HDN IA" style="text;html=1;align=center;" vertex="1" parent="1">
          <mxGeometry x="267" y="202" width="55" height="30" as="geometry"/>
        </mxCell>
        <mxCell id="KdxwWmkY_eBGt478L3Sq-14" value="" style="group" vertex="1" connectable="0" parent="1">
          <mxGeometry x="811" y="257" width="55" height="55" as="geometry"/>
        </mxCell>
        <mxCell id="KdxwWmkY_eBGt478L3Sq-15" value="" style="html=1;verticalLabelPosition=bottom;align=center;labelBackgroundColor=#ffffff;verticalAlign=top;strokeWidth=2;strokeColor=#000000;fillColor=#ffffff;shadow=0;dashed=0;shape=mxgraph.ios7.icons.mail;aspect=fixed;" vertex="1" parent="KdxwWmkY_eBGt478L3Sq-14">
          <mxGeometry x="5" y="27" width="50" height="28" as="geometry"/>
        </mxCell>
        <mxCell id="KdxwWmkY_eBGt478L3Sq-16" value="HDN SX" style="text;html=1;align=center;" vertex="1" parent="KdxwWmkY_eBGt478L3Sq-14">
          <mxGeometry width="55" height="30" as="geometry"/>
        </mxCell>
        <mxCell id="KdxwWmkY_eBGt478L3Sq-17" style="rounded=0;orthogonalLoop=1;jettySize=auto;html=1;exitX=0.5;exitY=0;exitDx=0;exitDy=0;entryX=0;entryY=0.429;entryDx=0;entryDy=0;entryPerimeter=0;endArrow=open;endFill=0;fontSize=10;edgeStyle=orthogonalEdgeStyle;" edge="1" parent="1" source="KdxwWmkY_eBGt478L3Sq-19" target="KdxwWmkY_eBGt478L3Sq-75">
          <mxGeometry relative="1" as="geometry">
            <mxPoint x="742" y="243" as="sourcePoint"/>
          </mxGeometry>
        </mxCell>
        <mxCell id="KdxwWmkY_eBGt478L3Sq-18" style="rounded=0;orthogonalLoop=1;jettySize=auto;html=1;exitX=0.5;exitY=1;exitDx=0;exitDy=0;endArrow=open;endFill=0;fontSize=10;edgeStyle=orthogonalEdgeStyle;" edge="1" parent="1" source="KdxwWmkY_eBGt478L3Sq-19">
          <mxGeometry relative="1" as="geometry">
            <mxPoint x="742" y="273" as="sourcePoint"/>
            <mxPoint x="818" y="299" as="targetPoint"/>
            <Array as="points">
              <mxPoint x="734" y="299"/>
            </Array>
          </mxGeometry>
        </mxCell>
        <mxCell id="KdxwWmkY_eBGt478L3Sq-19" value="" style="rhombus;whiteSpace=wrap;html=1;strokeColor=#000000;align=center;" vertex="1" parent="1">
          <mxGeometry x="719" y="242" width="30" height="30" as="geometry"/>
        </mxCell>
        <mxCell id="KdxwWmkY_eBGt478L3Sq-20" value="" style="group" vertex="1" connectable="0" parent="1">
          <mxGeometry x="495" y="433" width="164" height="230.0000000000001" as="geometry"/>
        </mxCell>
        <mxCell id="KdxwWmkY_eBGt478L3Sq-21" value="&lt;b&gt;&lt;br&gt;&lt;/b&gt;" style="shape=step;perimeter=stepPerimeter;whiteSpace=wrap;html=1;fixedSize=1;fontSize=19;align=center;fillColor=#f5f5f5;strokeColor=#666666;fontColor=#333333;rotation=-90;size=-1.3333333333333712;" vertex="1" parent="KdxwWmkY_eBGt478L3Sq-20">
          <mxGeometry x="-89" y="78" width="248" height="80" as="geometry"/>
        </mxCell>
        <mxCell id="KdxwWmkY_eBGt478L3Sq-22" value="Contract&lt;br&gt;&lt;b&gt;Portfolio&lt;/b&gt;&lt;br&gt;dBase" style="shape=cylinder;whiteSpace=wrap;html=1;boundedLbl=1;backgroundOutline=1;" vertex="1" parent="KdxwWmkY_eBGt478L3Sq-20">
          <mxGeometry x="5" y="150.0000000000001" width="60" height="80" as="geometry"/>
        </mxCell>
        <mxCell id="KdxwWmkY_eBGt478L3Sq-23" value="get&lt;br&gt;contract&lt;br&gt;details&lt;br&gt;api" style="ellipse;whiteSpace=wrap;html=1;aspect=fixed;align=center;" vertex="1" parent="KdxwWmkY_eBGt478L3Sq-20">
          <mxGeometry x="5" y="8" width="60" height="60" as="geometry"/>
        </mxCell>
        <mxCell id="KdxwWmkY_eBGt478L3Sq-24" value="" style="outlineConnect=0;fontColor=#232F3E;gradientColor=none;strokeColor=#232F3E;fillColor=none;dashed=0;verticalLabelPosition=bottom;verticalAlign=top;align=center;html=1;fontSize=12;fontStyle=0;aspect=fixed;shape=mxgraph.aws4.resourceIcon;resIcon=mxgraph.aws4.lambda_function;" vertex="1" parent="KdxwWmkY_eBGt478L3Sq-20">
          <mxGeometry y="76" width="70" height="70" as="geometry"/>
        </mxCell>
        <mxCell id="KdxwWmkY_eBGt478L3Sq-25" style="rounded=0;orthogonalLoop=1;jettySize=auto;html=1;entryX=0.75;entryY=1;entryDx=0;entryDy=0;endArrow=open;endFill=0;exitX=1;exitY=0.5;exitDx=0;exitDy=0;edgeStyle=orthogonalEdgeStyle;" edge="1" parent="1" source="KdxwWmkY_eBGt478L3Sq-23" target="KdxwWmkY_eBGt478L3Sq-9">
          <mxGeometry relative="1" as="geometry">
            <mxPoint x="560" y="463" as="sourcePoint"/>
            <Array as="points">
              <mxPoint x="618" y="471"/>
            </Array>
          </mxGeometry>
        </mxCell>
        <mxCell id="KdxwWmkY_eBGt478L3Sq-26" style="edgeStyle=orthogonalEdgeStyle;rounded=0;orthogonalLoop=1;jettySize=auto;html=1;exitX=0.5;exitY=0;exitDx=0;exitDy=0;entryX=0.5;entryY=1;entryDx=0;entryDy=0;endArrow=open;endFill=0;" edge="1" parent="1" source="KdxwWmkY_eBGt478L3Sq-23" target="KdxwWmkY_eBGt478L3Sq-9">
          <mxGeometry relative="1" as="geometry"/>
        </mxCell>
        <mxCell id="KdxwWmkY_eBGt478L3Sq-27" value="&lt;font style=&quot;font-size: 10px&quot;&gt;200&lt;br&gt;&lt;b&gt;success&lt;/b&gt;&lt;br&gt;Contract Details&lt;br&gt;(ie access=ok,&lt;br&gt;contract&lt;br&gt;found and &lt;br&gt;available)&lt;/font&gt;" style="text;html=1;align=center;" vertex="1" parent="1">
          <mxGeometry x="532" y="292" width="83" height="80" as="geometry"/>
        </mxCell>
        <mxCell id="KdxwWmkY_eBGt478L3Sq-28" value="4xx&lt;br style=&quot;font-size: 10px&quot;&gt;&lt;b style=&quot;font-size: 10px&quot;&gt;functional&lt;/b&gt;&lt;br style=&quot;font-size: 10px&quot;&gt;error&amp;nbsp;(ie &lt;br style=&quot;font-size: 10px&quot;&gt;not found &lt;br&gt;or&amp;nbsp;not &lt;br&gt;authorized)&lt;br style=&quot;font-size: 10px&quot;&gt;or 5xx &lt;br&gt;&lt;b&gt;technical&lt;/b&gt;&lt;br style=&quot;font-size: 10px&quot;&gt;error" style="text;html=1;align=center;fontSize=10;" vertex="1" parent="1">
          <mxGeometry x="443" y="292" width="88" height="110" as="geometry"/>
        </mxCell>
        <mxCell id="KdxwWmkY_eBGt478L3Sq-29" value="advisor.id&lt;br&gt;contract.id&lt;br&gt;mortgagor.birthdate" style="text;html=1;align=right;fontSize=10;" vertex="1" parent="1">
          <mxGeometry x="414" y="471" width="74" height="35" as="geometry"/>
        </mxCell>
        <mxCell id="KdxwWmkY_eBGt478L3Sq-30" value="hdn.ia.header&lt;br&gt;aegon.advisor.id&lt;br&gt;aegon.contract.id&lt;br&gt;mortgagor.birthdate" style="text;html=1;align=center;fontSize=10;" vertex="1" parent="1">
          <mxGeometry x="239" y="276" width="100" height="77" as="geometry"/>
        </mxCell>
        <mxCell id="KdxwWmkY_eBGt478L3Sq-31" value="status&lt;br&gt;and/or&lt;br&gt;error msg" style="text;html=1;align=center;fontSize=10;" vertex="1" parent="1">
          <mxGeometry x="727" y="298" width="55" height="35" as="geometry"/>
        </mxCell>
        <mxCell id="KdxwWmkY_eBGt478L3Sq-32" value="Team Jiggly" style="text;html=1;align=center;fontSize=10;fontStyle=1" vertex="1" parent="1">
          <mxGeometry x="705" y="643" width="55" height="32" as="geometry"/>
        </mxCell>
        <mxCell id="KdxwWmkY_eBGt478L3Sq-33" style="rounded=0;orthogonalLoop=1;jettySize=auto;html=1;exitX=1;exitY=0.5;exitDx=0;exitDy=0;entryX=-0.02;entryY=0.536;entryDx=0;entryDy=0;entryPerimeter=0;endArrow=open;endFill=0;fontSize=10;" edge="1" parent="1" source="KdxwWmkY_eBGt478L3Sq-34" target="KdxwWmkY_eBGt478L3Sq-12">
          <mxGeometry relative="1" as="geometry"/>
        </mxCell>
        <mxCell id="KdxwWmkY_eBGt478L3Sq-34" value="Intermediairy&lt;br&gt;Software&lt;br&gt;(HDN node)" style="whiteSpace=wrap;html=1;aspect=fixed;strokeWidth=1;fillColor=#ffe6cc;fontSize=13;align=center;strokeColor=#d79b00;" vertex="1" parent="1">
          <mxGeometry x="161" y="223" width="70" height="70" as="geometry"/>
        </mxCell>
        <mxCell id="KdxwWmkY_eBGt478L3Sq-35" value="Advisor" style="shape=umlActor;verticalLabelPosition=bottom;labelBackgroundColor=#ffffff;verticalAlign=top;html=1;outlineConnect=0;dashed=1;strokeWidth=1;fillColor=none;fontSize=13;fontColor=#000000;align=center;fontStyle=1" vertex="1" parent="1">
          <mxGeometry x="112" y="223" width="30" height="57" as="geometry"/>
        </mxCell>
        <mxCell id="KdxwWmkY_eBGt478L3Sq-36" value="Intermediairy&lt;br&gt;Software&lt;br&gt;(HDN node)" style="whiteSpace=wrap;html=1;aspect=fixed;strokeWidth=1;fillColor=#ffe6cc;fontSize=13;align=center;strokeColor=#d79b00;" vertex="1" parent="1">
          <mxGeometry x="934" y="221" width="70" height="70" as="geometry"/>
        </mxCell>
        <mxCell id="KdxwWmkY_eBGt478L3Sq-37" value="Advisor" style="shape=umlActor;verticalLabelPosition=bottom;labelBackgroundColor=#ffffff;verticalAlign=top;html=1;outlineConnect=0;dashed=1;strokeWidth=1;fillColor=none;fontSize=13;fontColor=#000000;align=center;fontStyle=1" vertex="1" parent="1">
          <mxGeometry x="1020" y="221" width="30" height="57" as="geometry"/>
        </mxCell>
        <mxCell id="KdxwWmkY_eBGt478L3Sq-38" value="" style="group" vertex="1" connectable="0" parent="1">
          <mxGeometry x="262" y="369" width="53" height="43" as="geometry"/>
        </mxCell>
        <mxCell id="KdxwWmkY_eBGt478L3Sq-39" value="&lt;b style=&quot;font-size: 24px ; font-style: italic&quot;&gt;IN&lt;/b&gt;" style="text;html=1;strokeColor=none;fillColor=none;align=center;verticalAlign=middle;whiteSpace=wrap;rounded=0;" vertex="1" parent="KdxwWmkY_eBGt478L3Sq-38">
          <mxGeometry width="53" height="43" as="geometry"/>
        </mxCell>
        <mxCell id="KdxwWmkY_eBGt478L3Sq-40" value="Team Sopranos" style="text;html=1;align=center;fontSize=10;fontStyle=1" vertex="1" parent="1">
          <mxGeometry x="694" y="387" width="55" height="35" as="geometry"/>
        </mxCell>
        <mxCell id="KdxwWmkY_eBGt478L3Sq-41" value="HDN&lt;br&gt;(network)" style="text;html=1;align=center;fontSize=10;fontStyle=1" vertex="1" parent="1">
          <mxGeometry x="260" y="133" width="55" height="35" as="geometry"/>
        </mxCell>
        <mxCell id="KdxwWmkY_eBGt478L3Sq-42" value="HDN&lt;br&gt;(network)" style="text;html=1;align=center;fontSize=10;fontStyle=1" vertex="1" parent="1">
          <mxGeometry x="814.5" y="133" width="55" height="35" as="geometry"/>
        </mxCell>
        <mxCell id="KdxwWmkY_eBGt478L3Sq-43" value="Aegon" style="text;html=1;align=center;fontSize=10;fontStyle=1" vertex="1" parent="1">
          <mxGeometry x="529.5" y="133" width="55" height="35" as="geometry"/>
        </mxCell>
        <mxCell id="KdxwWmkY_eBGt478L3Sq-44" value="Intermediairy" style="text;html=1;align=center;fontSize=10;fontStyle=1" vertex="1" parent="1">
          <mxGeometry x="144.5" y="133" width="55" height="35" as="geometry"/>
        </mxCell>
        <mxCell id="KdxwWmkY_eBGt478L3Sq-45" value="Intermediairy" style="text;html=1;align=center;fontSize=10;fontStyle=1" vertex="1" parent="1">
          <mxGeometry x="969" y="133" width="55" height="35" as="geometry"/>
        </mxCell>
        <mxCell id="KdxwWmkY_eBGt478L3Sq-46" value="Verwerken HDN informatie Aanvraag" style="text;html=1;align=center;fontStyle=2" vertex="1" parent="1">
          <mxGeometry x="370" y="257" width="319" height="28" as="geometry"/>
        </mxCell>
        <mxCell id="KdxwWmkY_eBGt478L3Sq-47" value="Informatie Aanvraag (IA) Bericht" style="swimlane;childLayout=stackLayout;horizontal=1;startSize=30;horizontalStack=0;fillColor=#d5e8d4;rounded=1;fontSize=14;fontStyle=1;strokeWidth=2;resizeParent=0;resizeLast=1;shadow=0;dashed=0;align=center;strokeColor=#82b366;" vertex="1" parent="1">
          <mxGeometry x="101" y="427" width="231" height="112" as="geometry"/>
        </mxCell>
        <mxCell id="KdxwWmkY_eBGt478L3Sq-48" value="+Header (V1): Verzender\HDN-nr&#xa;+Tussenpersoon (V1): TP-nr&#xa;+Lening (V1): Hypotheek-nr &#xa;+Hypotheekgever (V1): Geboortedatum" style="align=left;strokeColor=none;fillColor=none;spacingLeft=4;fontSize=12;verticalAlign=top;resizable=0;rotatable=0;part=1;" vertex="1" parent="KdxwWmkY_eBGt478L3Sq-47">
          <mxGeometry y="30" width="231" height="82" as="geometry"/>
        </mxCell>
        <mxCell id="KdxwWmkY_eBGt478L3Sq-49" value="Informatie Bericht (IX)" style="swimlane;childLayout=stackLayout;horizontal=1;startSize=30;horizontalStack=0;fillColor=#d5e8d4;rounded=1;fontSize=14;fontStyle=1;strokeWidth=2;resizeParent=0;resizeLast=1;shadow=0;dashed=0;align=center;strokeColor=#82b366;" vertex="1" parent="1">
          <mxGeometry x="778" y="422" width="156" height="211" as="geometry"/>
        </mxCell>
        <mxCell id="KdxwWmkY_eBGt478L3Sq-50" value="+Header (V1)&#xa;+Lening (V1)&#xa;+Leningdeel (V99)&#xa;+Onderpand (V9)&#xa;+Depot (O9)&#xa;+Tussenpersoon (V1)&#xa;+Hypotheeknemer (V1)&#xa;+Hypotheekgever(s) (V9)&#xa;+Depothouder(s) (O9)&#xa;+Debiteur (O1)&#xa;+Borgsteller(s) (O9)&#xa;+PartijNAW (V99)" style="align=left;strokeColor=none;fillColor=none;spacingLeft=4;fontSize=12;verticalAlign=top;resizable=0;rotatable=0;part=1;" vertex="1" parent="KdxwWmkY_eBGt478L3Sq-49">
          <mxGeometry y="30" width="156" height="181" as="geometry"/>
        </mxCell>
        <mxCell id="KdxwWmkY_eBGt478L3Sq-51" style="edgeStyle=orthogonalEdgeStyle;rounded=0;orthogonalLoop=1;jettySize=auto;html=1;exitX=0.25;exitY=1;exitDx=0;exitDy=0;entryX=0;entryY=0.5;entryDx=0;entryDy=0;endArrow=open;endFill=0;" edge="1" parent="1" source="KdxwWmkY_eBGt478L3Sq-9" target="KdxwWmkY_eBGt478L3Sq-23">
          <mxGeometry relative="1" as="geometry"/>
        </mxCell>
        <mxCell id="KdxwWmkY_eBGt478L3Sq-52" value="4xx&lt;br&gt;5xx" style="text;html=1;align=center;fontSize=10;" vertex="1" parent="1">
          <mxGeometry x="505" y="395.5" width="27" height="38" as="geometry"/>
        </mxCell>
        <mxCell id="KdxwWmkY_eBGt478L3Sq-53" value="200" style="text;html=1;align=center;fontSize=10;" vertex="1" parent="1">
          <mxGeometry x="580.5" y="446" width="27" height="25" as="geometry"/>
        </mxCell>
        <mxCell id="KdxwWmkY_eBGt478L3Sq-54" style="rounded=0;orthogonalLoop=1;jettySize=auto;html=1;exitX=1;exitY=0.536;exitDx=0;exitDy=0;entryX=0;entryY=0.5;entryDx=0;entryDy=0;fontSize=11;exitPerimeter=0;edgeStyle=orthogonalEdgeStyle;" edge="1" parent="1" source="KdxwWmkY_eBGt478L3Sq-75" target="KdxwWmkY_eBGt478L3Sq-36">
          <mxGeometry relative="1" as="geometry"/>
        </mxCell>
        <mxCell id="KdxwWmkY_eBGt478L3Sq-55" style="rounded=0;orthogonalLoop=1;jettySize=auto;html=1;exitX=1;exitY=0.571;exitDx=0;exitDy=0;entryX=0;entryY=0.5;entryDx=0;entryDy=0;fontSize=11;exitPerimeter=0;edgeStyle=orthogonalEdgeStyle;" edge="1" parent="1" source="KdxwWmkY_eBGt478L3Sq-15" target="KdxwWmkY_eBGt478L3Sq-36">
          <mxGeometry relative="1" as="geometry"/>
        </mxCell>
        <mxCell id="KdxwWmkY_eBGt478L3Sq-56" value="" style="group" vertex="1" connectable="0" parent="1">
          <mxGeometry x="919" y="193" width="41" height="28" as="geometry"/>
        </mxCell>
        <mxCell id="KdxwWmkY_eBGt478L3Sq-57" value="&lt;b style=&quot;font-style: italic&quot;&gt;&lt;font style=&quot;font-size: 12px&quot;&gt;IN&lt;/font&gt;&lt;/b&gt;" style="text;html=1;strokeColor=none;fillColor=none;align=center;verticalAlign=middle;whiteSpace=wrap;rounded=0;" vertex="1" parent="KdxwWmkY_eBGt478L3Sq-56">
          <mxGeometry width="41" height="28.000000000000004" as="geometry"/>
        </mxCell>
        <mxCell id="KdxwWmkY_eBGt478L3Sq-58" value="" style="group" vertex="1" connectable="0" parent="1">
          <mxGeometry x="201" y="196" width="41" height="28" as="geometry"/>
        </mxCell>
        <mxCell id="KdxwWmkY_eBGt478L3Sq-59" value="&lt;b style=&quot;font-style: italic&quot;&gt;&lt;font style=&quot;font-size: 12px&quot;&gt;OUT&lt;/font&gt;&lt;/b&gt;" style="text;html=1;strokeColor=none;fillColor=none;align=center;verticalAlign=middle;whiteSpace=wrap;rounded=0;" vertex="1" parent="KdxwWmkY_eBGt478L3Sq-58">
          <mxGeometry width="41" height="28.000000000000004" as="geometry"/>
        </mxCell>
        <mxCell id="KdxwWmkY_eBGt478L3Sq-60" value="succes:&lt;br&gt;contract&lt;br&gt;details" style="text;html=1;align=left;fontSize=10;" vertex="1" parent="1">
          <mxGeometry x="575" y="471" width="58" height="35" as="geometry"/>
        </mxCell>
        <mxCell id="KdxwWmkY_eBGt478L3Sq-61" value="error" style="text;html=1;align=left;fontSize=10;" vertex="1" parent="1">
          <mxGeometry x="534" y="402" width="31" height="26" as="geometry"/>
        </mxCell>
        <mxCell id="KdxwWmkY_eBGt478L3Sq-62" value="User requests an update of&lt;br&gt;a selected Mortgage Contract" style="text;html=1;align=center;fontSize=10;" vertex="1" parent="1">
          <mxGeometry x="102" y="372.5" width="144" height="35" as="geometry"/>
        </mxCell>
        <mxCell id="KdxwWmkY_eBGt478L3Sq-63" value="User receives latest update&lt;br&gt;of Mortgage Contract Details&lt;br&gt;or an status message on failure" style="text;html=1;align=center;fontSize=10;" vertex="1" parent="1">
          <mxGeometry x="923" y="360.5" width="144" height="35" as="geometry"/>
        </mxCell>
        <mxCell id="KdxwWmkY_eBGt478L3Sq-64" value="Aegons HDN Information service uses from the IA &lt;br&gt;message: TP-nr,&amp;nbsp; Mortgage-nr and the birthdate of one&amp;nbsp;&lt;br&gt;of the&amp;nbsp;Mortgagors to retrieve Contract Details from an API" style="text;html=1;align=center;fontSize=10;" vertex="1" parent="1">
          <mxGeometry x="401" y="168" width="254" height="35" as="geometry"/>
        </mxCell>
        <mxCell id="KdxwWmkY_eBGt478L3Sq-65" value="&lt;span style=&quot;font-size: 21px&quot;&gt;&lt;b&gt;Aegon&lt;/b&gt;&lt;br&gt;3rd Party Datasharing&lt;/span&gt;" style="text;html=1;strokeColor=none;fillColor=none;align=center;verticalAlign=middle;whiteSpace=wrap;rounded=0;" vertex="1" parent="1">
          <mxGeometry x="106" y="598" width="211" height="106" as="geometry"/>
        </mxCell>
        <mxCell id="KdxwWmkY_eBGt478L3Sq-66" value="" style="group" vertex="1" connectable="0" parent="1">
          <mxGeometry x="817.5" y="598" width="211" height="106" as="geometry"/>
        </mxCell>
        <mxCell id="KdxwWmkY_eBGt478L3Sq-67" value="&lt;b style=&quot;font-size: 24px ; font-style: italic&quot;&gt;HDN IA-IX -SX v3&lt;/b&gt;" style="text;html=1;strokeColor=none;fillColor=none;align=center;verticalAlign=middle;whiteSpace=wrap;rounded=0;" vertex="1" parent="KdxwWmkY_eBGt478L3Sq-66">
          <mxGeometry width="211" height="106" as="geometry"/>
        </mxCell>
        <mxCell id="KdxwWmkY_eBGt478L3Sq-68" value="&lt;font&gt;&lt;b&gt;&lt;i&gt;14th october 2019&lt;/i&gt;&lt;/b&gt;&lt;br&gt;&lt;/font&gt;" style="text;html=1;strokeColor=none;fillColor=none;align=center;verticalAlign=middle;whiteSpace=wrap;rounded=0;" vertex="1" parent="KdxwWmkY_eBGt478L3Sq-66">
          <mxGeometry x="35.5" y="68" width="140" height="19" as="geometry"/>
        </mxCell>
        <mxCell id="KdxwWmkY_eBGt478L3Sq-69" value="Status Bericht (SX)" style="swimlane;childLayout=stackLayout;horizontal=1;startSize=30;horizontalStack=0;fillColor=#d5e8d4;rounded=1;fontSize=14;fontStyle=1;strokeWidth=2;resizeParent=0;resizeLast=1;shadow=0;dashed=0;align=center;strokeColor=#82b366;" vertex="1" parent="1">
          <mxGeometry x="939" y="422" width="134" height="144" as="geometry"/>
        </mxCell>
        <mxCell id="KdxwWmkY_eBGt478L3Sq-70" value="+Header (V1)&#xa;+Status (V1)" style="align=left;strokeColor=none;fillColor=none;spacingLeft=4;fontSize=12;verticalAlign=top;resizable=0;rotatable=0;part=1;" vertex="1" parent="KdxwWmkY_eBGt478L3Sq-69">
          <mxGeometry y="30" width="134" height="114" as="geometry"/>
        </mxCell>
        <mxCell id="KdxwWmkY_eBGt478L3Sq-71" value="contract&lt;br&gt;details" style="text;html=1;align=center;fontSize=10;" vertex="1" parent="1">
          <mxGeometry x="732.5" y="180" width="55" height="35" as="geometry"/>
        </mxCell>
        <mxCell id="KdxwWmkY_eBGt478L3Sq-72" value="" style="group" vertex="1" connectable="0" parent="1">
          <mxGeometry x="813.5" y="365" width="53" height="43" as="geometry"/>
        </mxCell>
        <mxCell id="KdxwWmkY_eBGt478L3Sq-73" value="&lt;b style=&quot;font-size: 24px ; font-style: italic&quot;&gt;OUT&lt;/b&gt;" style="text;html=1;strokeColor=none;fillColor=none;align=center;verticalAlign=middle;whiteSpace=wrap;rounded=0;" vertex="1" parent="KdxwWmkY_eBGt478L3Sq-72">
          <mxGeometry width="53" height="43" as="geometry"/>
        </mxCell>
        <mxCell id="KdxwWmkY_eBGt478L3Sq-74" value="" style="group" vertex="1" connectable="0" parent="1">
          <mxGeometry x="813" y="180" width="55" height="55" as="geometry"/>
        </mxCell>
        <mxCell id="KdxwWmkY_eBGt478L3Sq-75" value="" style="html=1;verticalLabelPosition=bottom;align=center;labelBackgroundColor=#ffffff;verticalAlign=top;strokeWidth=2;strokeColor=#000000;fillColor=#ffffff;shadow=0;dashed=0;shape=mxgraph.ios7.icons.mail;aspect=fixed;" vertex="1" parent="KdxwWmkY_eBGt478L3Sq-74">
          <mxGeometry x="3" y="27" width="50" height="28" as="geometry"/>
        </mxCell>
        <mxCell id="KdxwWmkY_eBGt478L3Sq-76" value="HDN IX" style="text;html=1;align=center;" vertex="1" parent="KdxwWmkY_eBGt478L3Sq-74">
          <mxGeometry width="55" height="30" as="geometry"/>
        </mxCell>
        <mxCell id="KdxwWmkY_eBGt478L3Sq-77" value="&lt;b style=&quot;font-size: 12px&quot;&gt;Publish Mortgage&amp;nbsp;&lt;br&gt;Contract Details&lt;br&gt;&lt;/b&gt;" style="shape=step;perimeter=stepPerimeter;whiteSpace=wrap;html=1;fixedSize=1;fontSize=19;align=center;fillColor=#f5f5f5;strokeColor=#666666;fontColor=#333333;" vertex="1" parent="1">
          <mxGeometry x="347.5" y="601" width="152" height="50" as="geometry"/>
        </mxCell>
        <mxCell id="KdxwWmkY_eBGt478L3Sq-78" value="200" style="text;html=1;align=center;fontSize=10;" vertex="1" parent="1">
          <mxGeometry x="713.5" y="185.5" width="27" height="25" as="geometry"/>
        </mxCell>
        <mxCell id="KdxwWmkY_eBGt478L3Sq-79" value="4xx&lt;br&gt;5xx" style="text;html=1;align=center;fontSize=10;" vertex="1" parent="1">
          <mxGeometry x="705" y="298" width="27" height="38" as="geometry"/>
        </mxCell>
      </root>
    </mxGraphModel>
  </diagram>
  <diagram id="KQqos0021TjTgTawmyaL" name="Page-2">
    <mxGraphModel dx="1172" dy="719" grid="0" gridSize="10" guides="1" tooltips="1" connect="1" arrows="1" fold="1" page="1" pageScale="1" pageWidth="2336" pageHeight="1654" math="0" shadow="0">
      <root>
        <mxCell id="nhNSSs62MJOSciY4ul6P-0"/>
        <mxCell id="nhNSSs62MJOSciY4ul6P-1" parent="nhNSSs62MJOSciY4ul6P-0"/>
        <mxCell id="nhNSSs62MJOSciY4ul6P-43" value="" style="rounded=0;whiteSpace=wrap;html=1;strokeColor=none;fontSize=10;align=center;fillColor=#f5f5f5;fontColor=#333333;" vertex="1" parent="nhNSSs62MJOSciY4ul6P-1">
          <mxGeometry x="200.5" y="131" width="133" height="280" as="geometry"/>
        </mxCell>
        <mxCell id="nhNSSs62MJOSciY4ul6P-2" value="" style="rounded=0;whiteSpace=wrap;html=1;strokeColor=none;fontSize=10;align=center;fillColor=#f5f5f5;fontColor=#333333;" vertex="1" parent="nhNSSs62MJOSciY4ul6P-1">
          <mxGeometry x="927" y="133" width="140" height="280" as="geometry"/>
        </mxCell>
        <mxCell id="nhNSSs62MJOSciY4ul6P-3" value="" style="rounded=0;whiteSpace=wrap;html=1;strokeColor=none;fontSize=10;align=center;fillColor=#f5f5f5;fontColor=#333333;" vertex="1" parent="nhNSSs62MJOSciY4ul6P-1">
          <mxGeometry x="782" y="133" width="133" height="280" as="geometry"/>
        </mxCell>
        <mxCell id="nhNSSs62MJOSciY4ul6P-4" value="" style="rounded=0;whiteSpace=wrap;html=1;strokeColor=none;fontSize=10;align=center;fillColor=#fff2cc;" vertex="1" parent="nhNSSs62MJOSciY4ul6P-1">
          <mxGeometry x="342" y="133" width="431" height="280" as="geometry"/>
        </mxCell>
        <mxCell id="nhNSSs62MJOSciY4ul6P-5" value="" style="shape=step;perimeter=stepPerimeter;whiteSpace=wrap;html=1;fixedSize=1;fontSize=19;align=center;fillColor=#f5f5f5;strokeColor=#666666;fontColor=#333333;" vertex="1" parent="nhNSSs62MJOSciY4ul6P-1">
          <mxGeometry x="419" y="233" width="350" height="51" as="geometry"/>
        </mxCell>
        <mxCell id="nhNSSs62MJOSciY4ul6P-6" style="rounded=0;orthogonalLoop=1;jettySize=auto;html=1;exitX=1;exitY=0.5;exitDx=0;exitDy=0;entryX=0;entryY=0.5;entryDx=0;entryDy=0;fontSize=11;" edge="1" parent="nhNSSs62MJOSciY4ul6P-1" source="nhNSSs62MJOSciY4ul6P-7" target="nhNSSs62MJOSciY4ul6P-16">
          <mxGeometry relative="1" as="geometry"/>
        </mxCell>
        <mxCell id="GKkiX-nYsw4cYB5NW3yl-1" style="edgeStyle=orthogonalEdgeStyle;rounded=0;orthogonalLoop=1;jettySize=auto;html=1;exitX=0.25;exitY=1;exitDx=0;exitDy=0;" edge="1" parent="nhNSSs62MJOSciY4ul6P-1" source="nhNSSs62MJOSciY4ul6P-7" target="GKkiX-nYsw4cYB5NW3yl-0">
          <mxGeometry relative="1" as="geometry"/>
        </mxCell>
        <mxCell id="nhNSSs62MJOSciY4ul6P-7" value="&lt;b&gt;Respond to information request&lt;br&gt;&lt;br&gt;&lt;/b&gt;" style="shape=step;perimeter=stepPerimeter;whiteSpace=wrap;html=1;fixedSize=1;fontSize=19;align=center;fillColor=#f5f5f5;strokeColor=#666666;fontColor=#333333;" vertex="1" parent="nhNSSs62MJOSciY4ul6P-1">
          <mxGeometry x="355" y="217.0000000000001" width="350" height="80" as="geometry"/>
        </mxCell>
        <mxCell id="nhNSSs62MJOSciY4ul6P-44" style="edgeStyle=orthogonalEdgeStyle;rounded=0;orthogonalLoop=1;jettySize=auto;html=1;entryX=0;entryY=0.5;entryDx=0;entryDy=0;" edge="1" parent="nhNSSs62MJOSciY4ul6P-1" source="nhNSSs62MJOSciY4ul6P-9" target="nhNSSs62MJOSciY4ul6P-8">
          <mxGeometry relative="1" as="geometry"/>
        </mxCell>
        <mxCell id="nhNSSs62MJOSciY4ul6P-8" value="" style="triangle;whiteSpace=wrap;html=1;fillColor=#d5e8d4;strokeColor=#82b366;" vertex="1" parent="nhNSSs62MJOSciY4ul6P-1">
          <mxGeometry x="336" y="238" width="23" height="38" as="geometry"/>
        </mxCell>
        <mxCell id="nhNSSs62MJOSciY4ul6P-9" value="" style="html=1;verticalLabelPosition=bottom;align=center;labelBackgroundColor=#ffffff;verticalAlign=top;strokeWidth=2;strokeColor=#000000;fillColor=#ffffff;shadow=0;dashed=0;shape=mxgraph.ios7.icons.mail;aspect=fixed;" vertex="1" parent="nhNSSs62MJOSciY4ul6P-1">
          <mxGeometry x="245" y="243" width="50" height="28" as="geometry"/>
        </mxCell>
        <mxCell id="nhNSSs62MJOSciY4ul6P-10" value="HDN IA" style="text;html=1;align=center;" vertex="1" parent="nhNSSs62MJOSciY4ul6P-1">
          <mxGeometry x="245" y="202" width="55" height="30" as="geometry"/>
        </mxCell>
        <mxCell id="nhNSSs62MJOSciY4ul6P-11" value="" style="group" vertex="1" connectable="0" parent="nhNSSs62MJOSciY4ul6P-1">
          <mxGeometry x="811" y="257" width="55" height="55" as="geometry"/>
        </mxCell>
        <mxCell id="nhNSSs62MJOSciY4ul6P-12" value="" style="html=1;verticalLabelPosition=bottom;align=center;labelBackgroundColor=#ffffff;verticalAlign=top;strokeWidth=2;strokeColor=#000000;fillColor=#ffffff;shadow=0;dashed=0;shape=mxgraph.ios7.icons.mail;aspect=fixed;" vertex="1" parent="nhNSSs62MJOSciY4ul6P-11">
          <mxGeometry x="5" y="27" width="50" height="28" as="geometry"/>
        </mxCell>
        <mxCell id="nhNSSs62MJOSciY4ul6P-13" value="HDN SX" style="text;html=1;align=center;" vertex="1" parent="nhNSSs62MJOSciY4ul6P-11">
          <mxGeometry width="55" height="30" as="geometry"/>
        </mxCell>
        <mxCell id="nhNSSs62MJOSciY4ul6P-14" style="rounded=0;orthogonalLoop=1;jettySize=auto;html=1;exitX=0.5;exitY=0;exitDx=0;exitDy=0;entryX=0;entryY=0.429;entryDx=0;entryDy=0;entryPerimeter=0;endArrow=open;endFill=0;fontSize=10;edgeStyle=orthogonalEdgeStyle;" edge="1" parent="nhNSSs62MJOSciY4ul6P-1" source="nhNSSs62MJOSciY4ul6P-16" target="nhNSSs62MJOSciY4ul6P-39">
          <mxGeometry relative="1" as="geometry">
            <mxPoint x="742" y="243" as="sourcePoint"/>
          </mxGeometry>
        </mxCell>
        <mxCell id="nhNSSs62MJOSciY4ul6P-15" style="rounded=0;orthogonalLoop=1;jettySize=auto;html=1;exitX=0.5;exitY=1;exitDx=0;exitDy=0;endArrow=open;endFill=0;fontSize=10;edgeStyle=orthogonalEdgeStyle;" edge="1" parent="nhNSSs62MJOSciY4ul6P-1" source="nhNSSs62MJOSciY4ul6P-16">
          <mxGeometry relative="1" as="geometry">
            <mxPoint x="742" y="273" as="sourcePoint"/>
            <mxPoint x="818.2380952380952" y="299.0952380952381" as="targetPoint"/>
            <Array as="points">
              <mxPoint x="734" y="299"/>
            </Array>
          </mxGeometry>
        </mxCell>
        <mxCell id="nhNSSs62MJOSciY4ul6P-16" value="" style="rhombus;whiteSpace=wrap;html=1;strokeColor=#000000;align=center;" vertex="1" parent="nhNSSs62MJOSciY4ul6P-1">
          <mxGeometry x="719" y="242" width="30" height="30" as="geometry"/>
        </mxCell>
        <mxCell id="nhNSSs62MJOSciY4ul6P-17" value="&lt;font style=&quot;font-size: 10px&quot;&gt;200&lt;br&gt;&lt;b&gt;success&lt;/b&gt;&lt;br&gt;Contract Details&lt;br&gt;(ie access=ok,&lt;br&gt;contract&lt;br&gt;found and &lt;br&gt;available)&lt;/font&gt;" style="text;html=1;align=center;" vertex="1" parent="nhNSSs62MJOSciY4ul6P-1">
          <mxGeometry x="589.5" y="297" width="83" height="80" as="geometry"/>
        </mxCell>
        <mxCell id="nhNSSs62MJOSciY4ul6P-18" value="4xx&lt;br style=&quot;font-size: 10px&quot;&gt;&lt;b style=&quot;font-size: 10px&quot;&gt;functional&lt;/b&gt;&lt;br style=&quot;font-size: 10px&quot;&gt;error&amp;nbsp;(ie &lt;br style=&quot;font-size: 10px&quot;&gt;not found &lt;br&gt;or&amp;nbsp;not &lt;br&gt;authorized)&lt;br style=&quot;font-size: 10px&quot;&gt;or 5xx &lt;br&gt;&lt;b&gt;technical&lt;/b&gt;&lt;br style=&quot;font-size: 10px&quot;&gt;error" style="text;html=1;align=center;fontSize=10;" vertex="1" parent="nhNSSs62MJOSciY4ul6P-1">
          <mxGeometry x="480.5" y="292" width="88" height="110" as="geometry"/>
        </mxCell>
        <mxCell id="nhNSSs62MJOSciY4ul6P-19" value="status&lt;br&gt;and/or&lt;br&gt;error msg" style="text;html=1;align=center;fontSize=10;" vertex="1" parent="nhNSSs62MJOSciY4ul6P-1">
          <mxGeometry x="727" y="298" width="55" height="35" as="geometry"/>
        </mxCell>
        <mxCell id="nhNSSs62MJOSciY4ul6P-20" value="Intermediairy&lt;br&gt;Software&lt;br&gt;(HDN node)" style="whiteSpace=wrap;html=1;aspect=fixed;strokeWidth=1;fillColor=#ffe6cc;fontSize=13;align=center;strokeColor=#d79b00;" vertex="1" parent="nhNSSs62MJOSciY4ul6P-1">
          <mxGeometry x="934" y="221" width="70" height="70" as="geometry"/>
        </mxCell>
        <mxCell id="nhNSSs62MJOSciY4ul6P-21" value="Advisor" style="shape=umlActor;verticalLabelPosition=bottom;labelBackgroundColor=#ffffff;verticalAlign=top;html=1;outlineConnect=0;dashed=1;strokeWidth=1;fillColor=none;fontSize=13;fontColor=#000000;align=center;fontStyle=1" vertex="1" parent="nhNSSs62MJOSciY4ul6P-1">
          <mxGeometry x="1020" y="221" width="30" height="57" as="geometry"/>
        </mxCell>
        <mxCell id="nhNSSs62MJOSciY4ul6P-22" value="" style="group" vertex="1" connectable="0" parent="nhNSSs62MJOSciY4ul6P-1">
          <mxGeometry x="240" y="369" width="53" height="43" as="geometry"/>
        </mxCell>
        <mxCell id="nhNSSs62MJOSciY4ul6P-23" value="&lt;b style=&quot;font-size: 24px ; font-style: italic&quot;&gt;IN&lt;/b&gt;" style="text;html=1;strokeColor=none;fillColor=none;align=center;verticalAlign=middle;whiteSpace=wrap;rounded=0;" vertex="1" parent="nhNSSs62MJOSciY4ul6P-22">
          <mxGeometry width="53" height="43" as="geometry"/>
        </mxCell>
        <mxCell id="nhNSSs62MJOSciY4ul6P-24" value="HDN&lt;br&gt;(network)" style="text;html=1;align=center;fontSize=10;fontStyle=1" vertex="1" parent="nhNSSs62MJOSciY4ul6P-1">
          <mxGeometry x="238" y="133" width="55" height="35" as="geometry"/>
        </mxCell>
        <mxCell id="nhNSSs62MJOSciY4ul6P-25" value="HDN&lt;br&gt;(network)" style="text;html=1;align=center;fontSize=10;fontStyle=1" vertex="1" parent="nhNSSs62MJOSciY4ul6P-1">
          <mxGeometry x="814.5" y="133" width="55" height="35" as="geometry"/>
        </mxCell>
        <mxCell id="nhNSSs62MJOSciY4ul6P-26" value="Aegon" style="text;html=1;align=center;fontSize=10;fontStyle=1" vertex="1" parent="nhNSSs62MJOSciY4ul6P-1">
          <mxGeometry x="529.5" y="133" width="55" height="35" as="geometry"/>
        </mxCell>
        <mxCell id="nhNSSs62MJOSciY4ul6P-27" value="Intermediairy" style="text;html=1;align=center;fontSize=10;fontStyle=1" vertex="1" parent="nhNSSs62MJOSciY4ul6P-1">
          <mxGeometry x="969" y="133" width="55" height="35" as="geometry"/>
        </mxCell>
        <mxCell id="nhNSSs62MJOSciY4ul6P-28" value="Verwerken HDN informatie Aanvraag" style="text;html=1;align=center;fontStyle=2" vertex="1" parent="nhNSSs62MJOSciY4ul6P-1">
          <mxGeometry x="370" y="257" width="319" height="28" as="geometry"/>
        </mxCell>
        <mxCell id="nhNSSs62MJOSciY4ul6P-29" style="rounded=0;orthogonalLoop=1;jettySize=auto;html=1;exitX=1;exitY=0.536;exitDx=0;exitDy=0;entryX=0;entryY=0.5;entryDx=0;entryDy=0;fontSize=11;exitPerimeter=0;edgeStyle=orthogonalEdgeStyle;" edge="1" parent="nhNSSs62MJOSciY4ul6P-1" source="nhNSSs62MJOSciY4ul6P-39" target="nhNSSs62MJOSciY4ul6P-20">
          <mxGeometry relative="1" as="geometry"/>
        </mxCell>
        <mxCell id="nhNSSs62MJOSciY4ul6P-30" style="rounded=0;orthogonalLoop=1;jettySize=auto;html=1;exitX=1;exitY=0.571;exitDx=0;exitDy=0;entryX=0;entryY=0.5;entryDx=0;entryDy=0;fontSize=11;exitPerimeter=0;edgeStyle=orthogonalEdgeStyle;" edge="1" parent="nhNSSs62MJOSciY4ul6P-1" source="nhNSSs62MJOSciY4ul6P-12" target="nhNSSs62MJOSciY4ul6P-20">
          <mxGeometry relative="1" as="geometry"/>
        </mxCell>
        <mxCell id="nhNSSs62MJOSciY4ul6P-31" value="" style="group" vertex="1" connectable="0" parent="nhNSSs62MJOSciY4ul6P-1">
          <mxGeometry x="919" y="193" width="41" height="28" as="geometry"/>
        </mxCell>
        <mxCell id="nhNSSs62MJOSciY4ul6P-32" value="&lt;b style=&quot;font-style: italic&quot;&gt;&lt;font style=&quot;font-size: 12px&quot;&gt;IN&lt;/font&gt;&lt;/b&gt;" style="text;html=1;strokeColor=none;fillColor=none;align=center;verticalAlign=middle;whiteSpace=wrap;rounded=0;" vertex="1" parent="nhNSSs62MJOSciY4ul6P-31">
          <mxGeometry width="41" height="28.000000000000004" as="geometry"/>
        </mxCell>
        <mxCell id="nhNSSs62MJOSciY4ul6P-33" value="User receives latest update&lt;br&gt;of Mortgage Contract Details&lt;br&gt;or an status message on failure" style="text;html=1;align=center;fontSize=10;" vertex="1" parent="nhNSSs62MJOSciY4ul6P-1">
          <mxGeometry x="923" y="360.5" width="144" height="35" as="geometry"/>
        </mxCell>
        <mxCell id="nhNSSs62MJOSciY4ul6P-34" value="Aegons HDN Information service uses from the IA &lt;br&gt;message: TP-nr,&amp;nbsp; Mortgage-nr and the birthdate of one&amp;nbsp;&lt;br&gt;of the&amp;nbsp;Mortgagors to retrieve Contract Details from an API" style="text;html=1;align=center;fontSize=10;" vertex="1" parent="nhNSSs62MJOSciY4ul6P-1">
          <mxGeometry x="401" y="168" width="254" height="35" as="geometry"/>
        </mxCell>
        <mxCell id="nhNSSs62MJOSciY4ul6P-35" value="contract&lt;br&gt;details" style="text;html=1;align=center;fontSize=10;" vertex="1" parent="nhNSSs62MJOSciY4ul6P-1">
          <mxGeometry x="732.5" y="180" width="55" height="35" as="geometry"/>
        </mxCell>
        <mxCell id="nhNSSs62MJOSciY4ul6P-36" value="" style="group" vertex="1" connectable="0" parent="nhNSSs62MJOSciY4ul6P-1">
          <mxGeometry x="813.5" y="365" width="53" height="43" as="geometry"/>
        </mxCell>
        <mxCell id="nhNSSs62MJOSciY4ul6P-37" value="&lt;b style=&quot;font-size: 24px ; font-style: italic&quot;&gt;OUT&lt;/b&gt;" style="text;html=1;strokeColor=none;fillColor=none;align=center;verticalAlign=middle;whiteSpace=wrap;rounded=0;" vertex="1" parent="nhNSSs62MJOSciY4ul6P-36">
          <mxGeometry width="53" height="43" as="geometry"/>
        </mxCell>
        <mxCell id="nhNSSs62MJOSciY4ul6P-38" value="" style="group" vertex="1" connectable="0" parent="nhNSSs62MJOSciY4ul6P-1">
          <mxGeometry x="813" y="180" width="55" height="55" as="geometry"/>
        </mxCell>
        <mxCell id="nhNSSs62MJOSciY4ul6P-39" value="" style="html=1;verticalLabelPosition=bottom;align=center;labelBackgroundColor=#ffffff;verticalAlign=top;strokeWidth=2;strokeColor=#000000;fillColor=#ffffff;shadow=0;dashed=0;shape=mxgraph.ios7.icons.mail;aspect=fixed;" vertex="1" parent="nhNSSs62MJOSciY4ul6P-38">
          <mxGeometry x="3" y="27" width="50" height="28" as="geometry"/>
        </mxCell>
        <mxCell id="nhNSSs62MJOSciY4ul6P-40" value="HDN IX" style="text;html=1;align=center;" vertex="1" parent="nhNSSs62MJOSciY4ul6P-38">
          <mxGeometry width="55" height="30" as="geometry"/>
        </mxCell>
        <mxCell id="nhNSSs62MJOSciY4ul6P-41" value="200" style="text;html=1;align=center;fontSize=10;" vertex="1" parent="nhNSSs62MJOSciY4ul6P-1">
          <mxGeometry x="713.5" y="185.5" width="27" height="25" as="geometry"/>
        </mxCell>
        <mxCell id="nhNSSs62MJOSciY4ul6P-42" value="4xx&lt;br&gt;5xx" style="text;html=1;align=center;fontSize=10;" vertex="1" parent="nhNSSs62MJOSciY4ul6P-1">
          <mxGeometry x="705" y="298" width="27" height="38" as="geometry"/>
        </mxCell>
        <mxCell id="eP9rVnbPA-uWz4LobL2u-0" value="" style="rounded=0;whiteSpace=wrap;html=1;strokeColor=none;fontSize=10;align=center;fillColor=#f5f5f5;fontColor=#333333;" vertex="1" parent="nhNSSs62MJOSciY4ul6P-1">
          <mxGeometry x="55" y="132" width="140" height="282" as="geometry"/>
        </mxCell>
        <mxCell id="eP9rVnbPA-uWz4LobL2u-1" style="rounded=0;orthogonalLoop=1;jettySize=auto;html=1;exitX=1;exitY=0.5;exitDx=0;exitDy=0;endArrow=open;endFill=0;fontSize=10;" edge="1" parent="nhNSSs62MJOSciY4ul6P-1" source="eP9rVnbPA-uWz4LobL2u-2" target="nhNSSs62MJOSciY4ul6P-9">
          <mxGeometry relative="1" as="geometry">
            <mxPoint x="219" y="257.00800000000004" as="targetPoint"/>
          </mxGeometry>
        </mxCell>
        <mxCell id="eP9rVnbPA-uWz4LobL2u-2" value="Intermediairy&lt;br&gt;Software&lt;br&gt;(HDN node)" style="whiteSpace=wrap;html=1;aspect=fixed;strokeWidth=1;fillColor=#ffe6cc;fontSize=13;align=center;strokeColor=#d79b00;" vertex="1" parent="nhNSSs62MJOSciY4ul6P-1">
          <mxGeometry x="114" y="222" width="70" height="70" as="geometry"/>
        </mxCell>
        <mxCell id="eP9rVnbPA-uWz4LobL2u-3" value="Advisor" style="shape=umlActor;verticalLabelPosition=bottom;labelBackgroundColor=#ffffff;verticalAlign=top;html=1;outlineConnect=0;dashed=1;strokeWidth=1;fillColor=none;fontSize=13;fontColor=#000000;align=center;fontStyle=1" vertex="1" parent="nhNSSs62MJOSciY4ul6P-1">
          <mxGeometry x="65" y="222" width="30" height="57" as="geometry"/>
        </mxCell>
        <mxCell id="eP9rVnbPA-uWz4LobL2u-4" value="Intermediairy" style="text;html=1;align=center;fontSize=10;fontStyle=1" vertex="1" parent="nhNSSs62MJOSciY4ul6P-1">
          <mxGeometry x="97.5" y="132" width="55" height="35" as="geometry"/>
        </mxCell>
        <mxCell id="eP9rVnbPA-uWz4LobL2u-5" value="" style="group" vertex="1" connectable="0" parent="nhNSSs62MJOSciY4ul6P-1">
          <mxGeometry x="154" y="195" width="41" height="28" as="geometry"/>
        </mxCell>
        <mxCell id="eP9rVnbPA-uWz4LobL2u-6" value="&lt;b style=&quot;font-style: italic&quot;&gt;&lt;font style=&quot;font-size: 12px&quot;&gt;OUT&lt;/font&gt;&lt;/b&gt;" style="text;html=1;strokeColor=none;fillColor=none;align=center;verticalAlign=middle;whiteSpace=wrap;rounded=0;" vertex="1" parent="eP9rVnbPA-uWz4LobL2u-5">
          <mxGeometry width="41" height="28.000000000000004" as="geometry"/>
        </mxCell>
        <mxCell id="eP9rVnbPA-uWz4LobL2u-7" value="User requests an update of&lt;br&gt;a selected Mortgage Contract" style="text;html=1;align=center;fontSize=10;" vertex="1" parent="nhNSSs62MJOSciY4ul6P-1">
          <mxGeometry x="55" y="371.5" width="144" height="35" as="geometry"/>
        </mxCell>
        <mxCell id="GKkiX-nYsw4cYB5NW3yl-2" style="edgeStyle=orthogonalEdgeStyle;rounded=0;orthogonalLoop=1;jettySize=auto;html=1;exitX=1;exitY=0.5;exitDx=0;exitDy=0;entryX=0.652;entryY=0.983;entryDx=0;entryDy=0;entryPerimeter=0;" edge="1" parent="nhNSSs62MJOSciY4ul6P-1" source="GKkiX-nYsw4cYB5NW3yl-0" target="nhNSSs62MJOSciY4ul6P-7">
          <mxGeometry relative="1" as="geometry"/>
        </mxCell>
        <mxCell id="GKkiX-nYsw4cYB5NW3yl-0" value="get&lt;br&gt;mortgage&lt;br&gt;details&lt;br&gt;api" style="ellipse;whiteSpace=wrap;html=1;aspect=fixed;align=center;" vertex="1" parent="nhNSSs62MJOSciY4ul6P-1">
          <mxGeometry x="412" y="329" width="60" height="60" as="geometry"/>
        </mxCell>
        <mxCell id="GKkiX-nYsw4cYB5NW3yl-3" value="" style="rounded=0;whiteSpace=wrap;html=1;strokeColor=none;fontSize=10;align=center;fillColor=#f5f5f5;fontColor=#333333;" vertex="1" parent="nhNSSs62MJOSciY4ul6P-1">
          <mxGeometry x="211" y="449" width="133" height="386" as="geometry"/>
        </mxCell>
        <mxCell id="GKkiX-nYsw4cYB5NW3yl-4" value="" style="rounded=0;whiteSpace=wrap;html=1;strokeColor=none;fontSize=10;align=center;fillColor=#f5f5f5;fontColor=#333333;" vertex="1" parent="nhNSSs62MJOSciY4ul6P-1">
          <mxGeometry x="937" y="451" width="140" height="381" as="geometry"/>
        </mxCell>
        <mxCell id="GKkiX-nYsw4cYB5NW3yl-5" value="" style="rounded=0;whiteSpace=wrap;html=1;strokeColor=none;fontSize=10;align=center;fillColor=#f5f5f5;fontColor=#333333;" vertex="1" parent="nhNSSs62MJOSciY4ul6P-1">
          <mxGeometry x="792" y="451" width="133" height="381" as="geometry"/>
        </mxCell>
        <mxCell id="GKkiX-nYsw4cYB5NW3yl-6" value="" style="rounded=0;whiteSpace=wrap;html=1;strokeColor=none;fontSize=10;align=center;fillColor=#fff2cc;" vertex="1" parent="nhNSSs62MJOSciY4ul6P-1">
          <mxGeometry x="355" y="451" width="431" height="381" as="geometry"/>
        </mxCell>
        <mxCell id="GKkiX-nYsw4cYB5NW3yl-7" value="" style="shape=step;perimeter=stepPerimeter;whiteSpace=wrap;html=1;fixedSize=1;fontSize=19;align=center;fillColor=#f5f5f5;strokeColor=#666666;fontColor=#333333;" vertex="1" parent="nhNSSs62MJOSciY4ul6P-1">
          <mxGeometry x="429" y="550.5" width="350" height="51" as="geometry"/>
        </mxCell>
        <mxCell id="GKkiX-nYsw4cYB5NW3yl-8" style="rounded=0;orthogonalLoop=1;jettySize=auto;html=1;exitX=1;exitY=0.5;exitDx=0;exitDy=0;entryX=0;entryY=0.5;entryDx=0;entryDy=0;fontSize=11;" edge="1" parent="nhNSSs62MJOSciY4ul6P-1" source="GKkiX-nYsw4cYB5NW3yl-10" target="GKkiX-nYsw4cYB5NW3yl-20">
          <mxGeometry relative="1" as="geometry"/>
        </mxCell>
        <mxCell id="GKkiX-nYsw4cYB5NW3yl-9" style="edgeStyle=orthogonalEdgeStyle;rounded=0;orthogonalLoop=1;jettySize=auto;html=1;exitX=0.5;exitY=1;exitDx=0;exitDy=0;" edge="1" parent="nhNSSs62MJOSciY4ul6P-1" source="GKkiX-nYsw4cYB5NW3yl-10" target="GKkiX-nYsw4cYB5NW3yl-56">
          <mxGeometry relative="1" as="geometry"/>
        </mxCell>
        <mxCell id="GKkiX-nYsw4cYB5NW3yl-63" style="edgeStyle=orthogonalEdgeStyle;rounded=0;orthogonalLoop=1;jettySize=auto;html=1;exitX=0.25;exitY=1;exitDx=0;exitDy=0;entryX=-0.002;entryY=0.523;entryDx=0;entryDy=0;entryPerimeter=0;" edge="1" parent="nhNSSs62MJOSciY4ul6P-1" source="GKkiX-nYsw4cYB5NW3yl-10" target="GKkiX-nYsw4cYB5NW3yl-61">
          <mxGeometry relative="1" as="geometry"/>
        </mxCell>
        <mxCell id="GKkiX-nYsw4cYB5NW3yl-10" value="&lt;b&gt;Respond to information request&lt;br&gt;&lt;br&gt;&lt;/b&gt;" style="shape=step;perimeter=stepPerimeter;whiteSpace=wrap;html=1;fixedSize=1;fontSize=19;align=center;fillColor=#f5f5f5;strokeColor=#666666;fontColor=#333333;" vertex="1" parent="nhNSSs62MJOSciY4ul6P-1">
          <mxGeometry x="365" y="534.5000000000001" width="350" height="80" as="geometry"/>
        </mxCell>
        <mxCell id="GKkiX-nYsw4cYB5NW3yl-11" style="edgeStyle=orthogonalEdgeStyle;rounded=0;orthogonalLoop=1;jettySize=auto;html=1;entryX=0;entryY=0.5;entryDx=0;entryDy=0;" edge="1" parent="nhNSSs62MJOSciY4ul6P-1" source="GKkiX-nYsw4cYB5NW3yl-13" target="GKkiX-nYsw4cYB5NW3yl-12">
          <mxGeometry relative="1" as="geometry"/>
        </mxCell>
        <mxCell id="GKkiX-nYsw4cYB5NW3yl-12" value="" style="triangle;whiteSpace=wrap;html=1;fillColor=#d5e8d4;strokeColor=#82b366;" vertex="1" parent="nhNSSs62MJOSciY4ul6P-1">
          <mxGeometry x="346" y="555.5" width="23" height="38" as="geometry"/>
        </mxCell>
        <mxCell id="GKkiX-nYsw4cYB5NW3yl-13" value="" style="html=1;verticalLabelPosition=bottom;align=center;labelBackgroundColor=#ffffff;verticalAlign=top;strokeWidth=2;strokeColor=#000000;fillColor=#ffffff;shadow=0;dashed=0;shape=mxgraph.ios7.icons.mail;aspect=fixed;" vertex="1" parent="nhNSSs62MJOSciY4ul6P-1">
          <mxGeometry x="255" y="560.5" width="50" height="28" as="geometry"/>
        </mxCell>
        <mxCell id="GKkiX-nYsw4cYB5NW3yl-14" value="HDN IA" style="text;html=1;align=center;" vertex="1" parent="nhNSSs62MJOSciY4ul6P-1">
          <mxGeometry x="255" y="519.5" width="55" height="30" as="geometry"/>
        </mxCell>
        <mxCell id="GKkiX-nYsw4cYB5NW3yl-15" value="" style="group" vertex="1" connectable="0" parent="nhNSSs62MJOSciY4ul6P-1">
          <mxGeometry x="821" y="574.5" width="55" height="55" as="geometry"/>
        </mxCell>
        <mxCell id="GKkiX-nYsw4cYB5NW3yl-16" value="" style="html=1;verticalLabelPosition=bottom;align=center;labelBackgroundColor=#ffffff;verticalAlign=top;strokeWidth=2;strokeColor=#000000;fillColor=#ffffff;shadow=0;dashed=0;shape=mxgraph.ios7.icons.mail;aspect=fixed;" vertex="1" parent="GKkiX-nYsw4cYB5NW3yl-15">
          <mxGeometry x="5" y="27" width="50" height="28" as="geometry"/>
        </mxCell>
        <mxCell id="GKkiX-nYsw4cYB5NW3yl-17" value="HDN SX" style="text;html=1;align=center;" vertex="1" parent="GKkiX-nYsw4cYB5NW3yl-15">
          <mxGeometry width="55" height="30" as="geometry"/>
        </mxCell>
        <mxCell id="GKkiX-nYsw4cYB5NW3yl-18" style="rounded=0;orthogonalLoop=1;jettySize=auto;html=1;exitX=0.5;exitY=0;exitDx=0;exitDy=0;entryX=0;entryY=0.429;entryDx=0;entryDy=0;entryPerimeter=0;endArrow=open;endFill=0;fontSize=10;edgeStyle=orthogonalEdgeStyle;" edge="1" parent="nhNSSs62MJOSciY4ul6P-1" source="GKkiX-nYsw4cYB5NW3yl-20" target="GKkiX-nYsw4cYB5NW3yl-43">
          <mxGeometry relative="1" as="geometry">
            <mxPoint x="752" y="560.5" as="sourcePoint"/>
          </mxGeometry>
        </mxCell>
        <mxCell id="GKkiX-nYsw4cYB5NW3yl-19" style="rounded=0;orthogonalLoop=1;jettySize=auto;html=1;exitX=0.5;exitY=1;exitDx=0;exitDy=0;endArrow=open;endFill=0;fontSize=10;edgeStyle=orthogonalEdgeStyle;" edge="1" parent="nhNSSs62MJOSciY4ul6P-1" source="GKkiX-nYsw4cYB5NW3yl-20">
          <mxGeometry relative="1" as="geometry">
            <mxPoint x="752" y="590.5" as="sourcePoint"/>
            <mxPoint x="828.2857142857142" y="616.7857142857143" as="targetPoint"/>
            <Array as="points">
              <mxPoint x="744" y="616.5"/>
            </Array>
          </mxGeometry>
        </mxCell>
        <mxCell id="GKkiX-nYsw4cYB5NW3yl-20" value="" style="rhombus;whiteSpace=wrap;html=1;strokeColor=#000000;align=center;" vertex="1" parent="nhNSSs62MJOSciY4ul6P-1">
          <mxGeometry x="729" y="559.5" width="30" height="30" as="geometry"/>
        </mxCell>
        <mxCell id="GKkiX-nYsw4cYB5NW3yl-24" value="Intermediairy&lt;br&gt;Software&lt;br&gt;(HDN node)" style="whiteSpace=wrap;html=1;aspect=fixed;strokeWidth=1;fillColor=#ffe6cc;fontSize=13;align=center;strokeColor=#d79b00;" vertex="1" parent="nhNSSs62MJOSciY4ul6P-1">
          <mxGeometry x="944" y="538.5" width="70" height="70" as="geometry"/>
        </mxCell>
        <mxCell id="GKkiX-nYsw4cYB5NW3yl-25" value="Advisor" style="shape=umlActor;verticalLabelPosition=bottom;labelBackgroundColor=#ffffff;verticalAlign=top;html=1;outlineConnect=0;dashed=1;strokeWidth=1;fillColor=none;fontSize=13;fontColor=#000000;align=center;fontStyle=1" vertex="1" parent="nhNSSs62MJOSciY4ul6P-1">
          <mxGeometry x="1030" y="538.5" width="30" height="57" as="geometry"/>
        </mxCell>
        <mxCell id="GKkiX-nYsw4cYB5NW3yl-26" value="" style="group" vertex="1" connectable="0" parent="nhNSSs62MJOSciY4ul6P-1">
          <mxGeometry x="245" y="783.5" width="53" height="43" as="geometry"/>
        </mxCell>
        <mxCell id="GKkiX-nYsw4cYB5NW3yl-27" value="&lt;b style=&quot;font-size: 24px ; font-style: italic&quot;&gt;IN&lt;/b&gt;" style="text;html=1;strokeColor=none;fillColor=none;align=center;verticalAlign=middle;whiteSpace=wrap;rounded=0;" vertex="1" parent="GKkiX-nYsw4cYB5NW3yl-26">
          <mxGeometry width="53" height="43" as="geometry"/>
        </mxCell>
        <mxCell id="GKkiX-nYsw4cYB5NW3yl-28" value="HDN&lt;br&gt;(network)" style="text;html=1;align=center;fontSize=10;fontStyle=1" vertex="1" parent="nhNSSs62MJOSciY4ul6P-1">
          <mxGeometry x="248" y="450.5" width="55" height="35" as="geometry"/>
        </mxCell>
        <mxCell id="GKkiX-nYsw4cYB5NW3yl-29" value="HDN&lt;br&gt;(network)" style="text;html=1;align=center;fontSize=10;fontStyle=1" vertex="1" parent="nhNSSs62MJOSciY4ul6P-1">
          <mxGeometry x="824.5" y="450.5" width="55" height="35" as="geometry"/>
        </mxCell>
        <mxCell id="GKkiX-nYsw4cYB5NW3yl-30" value="Aegon" style="text;html=1;align=center;fontSize=10;fontStyle=1" vertex="1" parent="nhNSSs62MJOSciY4ul6P-1">
          <mxGeometry x="539.5" y="450.5" width="55" height="35" as="geometry"/>
        </mxCell>
        <mxCell id="GKkiX-nYsw4cYB5NW3yl-31" value="Intermediairy" style="text;html=1;align=center;fontSize=10;fontStyle=1" vertex="1" parent="nhNSSs62MJOSciY4ul6P-1">
          <mxGeometry x="979" y="450.5" width="55" height="35" as="geometry"/>
        </mxCell>
        <mxCell id="GKkiX-nYsw4cYB5NW3yl-32" value="Verwerken HDN informatie Aanvraag" style="text;html=1;align=center;fontStyle=2" vertex="1" parent="nhNSSs62MJOSciY4ul6P-1">
          <mxGeometry x="380" y="574.5" width="319" height="28" as="geometry"/>
        </mxCell>
        <mxCell id="GKkiX-nYsw4cYB5NW3yl-33" style="rounded=0;orthogonalLoop=1;jettySize=auto;html=1;exitX=1;exitY=0.536;exitDx=0;exitDy=0;entryX=0;entryY=0.5;entryDx=0;entryDy=0;fontSize=11;exitPerimeter=0;edgeStyle=orthogonalEdgeStyle;" edge="1" parent="nhNSSs62MJOSciY4ul6P-1" source="GKkiX-nYsw4cYB5NW3yl-43" target="GKkiX-nYsw4cYB5NW3yl-24">
          <mxGeometry relative="1" as="geometry"/>
        </mxCell>
        <mxCell id="GKkiX-nYsw4cYB5NW3yl-34" style="rounded=0;orthogonalLoop=1;jettySize=auto;html=1;exitX=1;exitY=0.571;exitDx=0;exitDy=0;entryX=0;entryY=0.5;entryDx=0;entryDy=0;fontSize=11;exitPerimeter=0;edgeStyle=orthogonalEdgeStyle;" edge="1" parent="nhNSSs62MJOSciY4ul6P-1" source="GKkiX-nYsw4cYB5NW3yl-16" target="GKkiX-nYsw4cYB5NW3yl-24">
          <mxGeometry relative="1" as="geometry"/>
        </mxCell>
        <mxCell id="GKkiX-nYsw4cYB5NW3yl-35" value="" style="group" vertex="1" connectable="0" parent="nhNSSs62MJOSciY4ul6P-1">
          <mxGeometry x="929" y="510.5" width="41" height="28" as="geometry"/>
        </mxCell>
        <mxCell id="GKkiX-nYsw4cYB5NW3yl-36" value="&lt;b style=&quot;font-style: italic&quot;&gt;&lt;font style=&quot;font-size: 12px&quot;&gt;IN&lt;/font&gt;&lt;/b&gt;" style="text;html=1;strokeColor=none;fillColor=none;align=center;verticalAlign=middle;whiteSpace=wrap;rounded=0;" vertex="1" parent="GKkiX-nYsw4cYB5NW3yl-35">
          <mxGeometry width="41" height="28.000000000000004" as="geometry"/>
        </mxCell>
        <mxCell id="GKkiX-nYsw4cYB5NW3yl-37" value="User receives latest update&lt;br&gt;of Mortgage Contract Details&lt;br&gt;or an status message on failure" style="text;html=1;align=center;fontSize=10;" vertex="1" parent="nhNSSs62MJOSciY4ul6P-1">
          <mxGeometry x="933" y="782" width="144" height="35" as="geometry"/>
        </mxCell>
        <mxCell id="GKkiX-nYsw4cYB5NW3yl-39" value="contract&lt;br&gt;details" style="text;html=1;align=center;fontSize=10;" vertex="1" parent="nhNSSs62MJOSciY4ul6P-1">
          <mxGeometry x="742.5" y="497.5" width="55" height="35" as="geometry"/>
        </mxCell>
        <mxCell id="GKkiX-nYsw4cYB5NW3yl-40" value="" style="group" vertex="1" connectable="0" parent="nhNSSs62MJOSciY4ul6P-1">
          <mxGeometry x="828.5" y="787.5" width="53" height="43" as="geometry"/>
        </mxCell>
        <mxCell id="GKkiX-nYsw4cYB5NW3yl-41" value="&lt;b style=&quot;font-size: 24px ; font-style: italic&quot;&gt;OUT&lt;/b&gt;" style="text;html=1;strokeColor=none;fillColor=none;align=center;verticalAlign=middle;whiteSpace=wrap;rounded=0;" vertex="1" parent="GKkiX-nYsw4cYB5NW3yl-40">
          <mxGeometry width="53" height="43" as="geometry"/>
        </mxCell>
        <mxCell id="GKkiX-nYsw4cYB5NW3yl-42" value="" style="group" vertex="1" connectable="0" parent="nhNSSs62MJOSciY4ul6P-1">
          <mxGeometry x="823" y="497.5" width="55" height="55" as="geometry"/>
        </mxCell>
        <mxCell id="GKkiX-nYsw4cYB5NW3yl-43" value="" style="html=1;verticalLabelPosition=bottom;align=center;labelBackgroundColor=#ffffff;verticalAlign=top;strokeWidth=2;strokeColor=#000000;fillColor=#ffffff;shadow=0;dashed=0;shape=mxgraph.ios7.icons.mail;aspect=fixed;" vertex="1" parent="GKkiX-nYsw4cYB5NW3yl-42">
          <mxGeometry x="3" y="27" width="50" height="28" as="geometry"/>
        </mxCell>
        <mxCell id="GKkiX-nYsw4cYB5NW3yl-44" value="HDN IX" style="text;html=1;align=center;" vertex="1" parent="GKkiX-nYsw4cYB5NW3yl-42">
          <mxGeometry width="55" height="30" as="geometry"/>
        </mxCell>
        <mxCell id="GKkiX-nYsw4cYB5NW3yl-45" value="200" style="text;html=1;align=center;fontSize=10;" vertex="1" parent="nhNSSs62MJOSciY4ul6P-1">
          <mxGeometry x="715.5" y="525.5" width="27" height="25" as="geometry"/>
        </mxCell>
        <mxCell id="GKkiX-nYsw4cYB5NW3yl-46" value="4xx&lt;br&gt;5xx" style="text;html=1;align=center;fontSize=10;" vertex="1" parent="nhNSSs62MJOSciY4ul6P-1">
          <mxGeometry x="715" y="598" width="27" height="38" as="geometry"/>
        </mxCell>
        <mxCell id="GKkiX-nYsw4cYB5NW3yl-47" value="" style="rounded=0;whiteSpace=wrap;html=1;strokeColor=none;fontSize=10;align=center;fillColor=#f5f5f5;fontColor=#333333;" vertex="1" parent="nhNSSs62MJOSciY4ul6P-1">
          <mxGeometry x="65" y="450" width="140" height="385" as="geometry"/>
        </mxCell>
        <mxCell id="GKkiX-nYsw4cYB5NW3yl-48" style="rounded=0;orthogonalLoop=1;jettySize=auto;html=1;exitX=1;exitY=0.5;exitDx=0;exitDy=0;endArrow=open;endFill=0;fontSize=10;" edge="1" parent="nhNSSs62MJOSciY4ul6P-1" source="GKkiX-nYsw4cYB5NW3yl-49" target="GKkiX-nYsw4cYB5NW3yl-13">
          <mxGeometry relative="1" as="geometry">
            <mxPoint x="229" y="574.508" as="targetPoint"/>
          </mxGeometry>
        </mxCell>
        <mxCell id="GKkiX-nYsw4cYB5NW3yl-49" value="Intermediairy&lt;br&gt;Software&lt;br&gt;(HDN node)" style="whiteSpace=wrap;html=1;aspect=fixed;strokeWidth=1;fillColor=#ffe6cc;fontSize=13;align=center;strokeColor=#d79b00;" vertex="1" parent="nhNSSs62MJOSciY4ul6P-1">
          <mxGeometry x="124" y="539.5" width="70" height="70" as="geometry"/>
        </mxCell>
        <mxCell id="GKkiX-nYsw4cYB5NW3yl-50" value="Advisor" style="shape=umlActor;verticalLabelPosition=bottom;labelBackgroundColor=#ffffff;verticalAlign=top;html=1;outlineConnect=0;dashed=1;strokeWidth=1;fillColor=none;fontSize=13;fontColor=#000000;align=center;fontStyle=1" vertex="1" parent="nhNSSs62MJOSciY4ul6P-1">
          <mxGeometry x="75" y="539.5" width="30" height="57" as="geometry"/>
        </mxCell>
        <mxCell id="GKkiX-nYsw4cYB5NW3yl-51" value="Intermediairy" style="text;html=1;align=center;fontSize=10;fontStyle=1" vertex="1" parent="nhNSSs62MJOSciY4ul6P-1">
          <mxGeometry x="107.5" y="449.5" width="55" height="35" as="geometry"/>
        </mxCell>
        <mxCell id="GKkiX-nYsw4cYB5NW3yl-52" value="" style="group" vertex="1" connectable="0" parent="nhNSSs62MJOSciY4ul6P-1">
          <mxGeometry x="164" y="512.5" width="41" height="28" as="geometry"/>
        </mxCell>
        <mxCell id="GKkiX-nYsw4cYB5NW3yl-53" value="&lt;b style=&quot;font-style: italic&quot;&gt;&lt;font style=&quot;font-size: 12px&quot;&gt;OUT&lt;/font&gt;&lt;/b&gt;" style="text;html=1;strokeColor=none;fillColor=none;align=center;verticalAlign=middle;whiteSpace=wrap;rounded=0;" vertex="1" parent="GKkiX-nYsw4cYB5NW3yl-52">
          <mxGeometry width="41" height="28.000000000000004" as="geometry"/>
        </mxCell>
        <mxCell id="GKkiX-nYsw4cYB5NW3yl-54" value="User requests an update of&lt;br&gt;a selected Mortgage Contract" style="text;html=1;align=center;fontSize=10;" vertex="1" parent="nhNSSs62MJOSciY4ul6P-1">
          <mxGeometry x="65" y="791.5" width="144" height="35" as="geometry"/>
        </mxCell>
        <mxCell id="GKkiX-nYsw4cYB5NW3yl-55" style="rounded=0;orthogonalLoop=1;jettySize=auto;html=1;exitX=1;exitY=0.5;exitDx=0;exitDy=0;entryX=0.811;entryY=1.024;entryDx=0;entryDy=0;entryPerimeter=0;edgeStyle=orthogonalEdgeStyle;" edge="1" parent="nhNSSs62MJOSciY4ul6P-1" source="GKkiX-nYsw4cYB5NW3yl-56" target="GKkiX-nYsw4cYB5NW3yl-10">
          <mxGeometry relative="1" as="geometry">
            <Array as="points">
              <mxPoint x="590" y="680"/>
              <mxPoint x="649" y="680"/>
              <mxPoint x="649" y="635"/>
            </Array>
          </mxGeometry>
        </mxCell>
        <mxCell id="GKkiX-nYsw4cYB5NW3yl-58" style="edgeStyle=orthogonalEdgeStyle;rounded=0;orthogonalLoop=1;jettySize=auto;html=1;exitX=1;exitY=0.5;exitDx=0;exitDy=0;entryX=0.648;entryY=1.003;entryDx=0;entryDy=0;entryPerimeter=0;" edge="1" parent="nhNSSs62MJOSciY4ul6P-1" source="GKkiX-nYsw4cYB5NW3yl-56" target="GKkiX-nYsw4cYB5NW3yl-10">
          <mxGeometry relative="1" as="geometry">
            <Array as="points">
              <mxPoint x="592" y="680"/>
            </Array>
          </mxGeometry>
        </mxCell>
        <mxCell id="GKkiX-nYsw4cYB5NW3yl-56" value="get&lt;br&gt;mortgage&lt;br&gt;details&lt;br&gt;api" style="ellipse;whiteSpace=wrap;html=1;aspect=fixed;align=center;" vertex="1" parent="nhNSSs62MJOSciY4ul6P-1">
          <mxGeometry x="510.5" y="650.5" width="60" height="60" as="geometry"/>
        </mxCell>
        <mxCell id="GKkiX-nYsw4cYB5NW3yl-57" value="4xx&lt;br&gt;5xx" style="text;html=1;align=center;fontSize=10;" vertex="1" parent="nhNSSs62MJOSciY4ul6P-1">
          <mxGeometry x="567.5" y="610.5" width="27" height="38" as="geometry"/>
        </mxCell>
        <mxCell id="GKkiX-nYsw4cYB5NW3yl-59" value="200" style="text;html=1;align=center;fontSize=10;" vertex="1" parent="nhNSSs62MJOSciY4ul6P-1">
          <mxGeometry x="617.5" y="617" width="27" height="25" as="geometry"/>
        </mxCell>
        <mxCell id="GKkiX-nYsw4cYB5NW3yl-60" value="" style="group" vertex="1" connectable="0" parent="nhNSSs62MJOSciY4ul6P-1">
          <mxGeometry x="823.5" y="701" width="55" height="55" as="geometry"/>
        </mxCell>
        <mxCell id="GKkiX-nYsw4cYB5NW3yl-61" value="" style="html=1;verticalLabelPosition=bottom;align=center;labelBackgroundColor=#ffffff;verticalAlign=top;strokeWidth=2;strokeColor=#000000;fillColor=#ffffff;shadow=0;dashed=0;shape=mxgraph.ios7.icons.mail;aspect=fixed;" vertex="1" parent="GKkiX-nYsw4cYB5NW3yl-60">
          <mxGeometry x="5" y="27" width="50" height="28" as="geometry"/>
        </mxCell>
        <mxCell id="GKkiX-nYsw4cYB5NW3yl-62" value="HDN SX" style="text;html=1;align=center;" vertex="1" parent="GKkiX-nYsw4cYB5NW3yl-60">
          <mxGeometry width="55" height="30" as="geometry"/>
        </mxCell>
        <mxCell id="GKkiX-nYsw4cYB5NW3yl-67" value="01 ontvangen" style="text;html=1;" vertex="1" parent="nhNSSs62MJOSciY4ul6P-1">
          <mxGeometry x="813.5" y="755" width="108" height="27" as="geometry"/>
        </mxCell>
        <mxCell id="GKkiX-nYsw4cYB5NW3yl-68" value="&lt;div&gt;04 niet te verwerken&lt;/div&gt;&lt;div&gt;05 afgewezen&lt;/div&gt;&lt;div&gt;06 technisch niet te verwerken&lt;/div&gt;" style="text;html=1;" vertex="1" parent="nhNSSs62MJOSciY4ul6P-1">
          <mxGeometry x="797.5" y="629.5" width="112" height="60" as="geometry"/>
        </mxCell>
      </root>
    </mxGraphModel>
  </diagram>
</mxfile>
